PathFileType	4	(X/Y/Z)	C:\Users\JDoe\SprintCalib.trc
DataRate	CameraRate	NumFrames	NumMarkers	Units	OrigDataRate	OrigDataStartFrame	OrigNumFrames
250.00	250.00	       4	65	mm	250.00	127	       337
Frame#	Time	C7			T8			T12			IJ			PX			R.AA			R.AC			R.Scapula			R.HeadHum			R.Hum			R.Epi.Med			R.Epi.Lat			R.Ulna			R.Wrist.Uln			R.Wrist.Rad			R.Hand			R.Hand2			R.Hand5			L.AA			L.AC			L.Scapula			L.HeadHum			L.Hum			L.Epi.Med			L.Epi.Lat			L.Ulna			L.Wrist.Uln			L.Wrist.Rad			L.Hand			L.Hand2			L.Hand5			Tete.H			Tete.D			Tete.G			Sacral			R.EIAS			LEIAS			R.Crete			L.Crete			R.GT			R.Hip			R.Knee.Med			R.Knee.Lat			R.TTA			R.Fibula			R.Ankle.Med			R.Ankle.Lat			R.Calca			R.Foot.Med			R.Foot.Lat			L.GT			L.Hip			L.Knee.Med			L.Knee.Lat			L.TTA			L.Fibula			L.Ankle.Med			L.Ankle.Lat			L.Calca			L.Foot.Med			L.Foot.Lat			StartG			StartD			StartAvt			StartArr			
		X1	Y1	Z1	X2	Y2	Z2	X3	Y3	Z3	X4	Y4	Z4	X5	Y5	Z5	X6	Y6	Z6	X7	Y7	Z7	X8	Y8	Z8	X9	Y9	Z9	X10	Y10	Z10	X11	Y11	Z11	X12	Y12	Z12	X13	Y13	Z13	X14	Y14	Z14	X15	Y15	Z15	X16	Y16	Z16	X17	Y17	Z17	X18	Y18	Z18	X19	Y19	Z19	X20	Y20	Z20	X21	Y21	Z21	X22	Y22	Z22	X23	Y23	Z23	X24	Y24	Z24	X25	Y25	Z25	X26	Y26	Z26	X27	Y27	Z27	X28	Y28	Z28	X29	Y29	Z29	X30	Y30	Z30	X31	Y31	Z31	X32	Y32	Z32	X33	Y33	Z33	X34	Y34	Z34	X35	Y35	Z35	X36	Y36	Z36	X37	Y37	Z37	X38	Y38	Z38	X39	Y39	Z39	X40	Y40	Z40	X41	Y41	Z41	X42	Y42	Z42	X43	Y43	Z43	X44	Y44	Z44	X45	Y45	Z45	X46	Y46	Z46	X47	Y47	Z47	X48	Y48	Z48	X49	Y49	Z49	X50	Y50	Z50	X51	Y51	Z51	X52	Y52	Z52	X53	Y53	Z53	X54	Y54	Z54	X55	Y55	Z55	X56	Y56	Z56	X57	Y57	Z57	X58	Y58	Z58	X59	Y59	Z59	X60	Y60	Z60	X61	Y61	Z61	X62	Y62	Z62	X63	Y63	Z63	X64	Y64	Z64	X65	Y65	Z65	

127	0.504	-97.08852	88.74841	1480.42419	-48.95322	73.17815	1255.77112	-90.28732	74.21970	1128.63220	-241.16090	84.71892	1401.11572	-288.18097	80.82317	1252.09143	-49.48266	173.35602	1436.38135	-198.19174	202.78876	1419.94385	-117.06066	225.23480	1457.04321	-93.53841	311.01584	1404.34265	-52.67463	370.26385	1275.83130	-104.05566	391.76407	1152.83472	-56.54858	443.11713	1228.31982	-47.70813	557.95789	1138.61218	-49.02037	656.33484	1026.03516	-87.98169	676.25421	1066.84253	-57.22996	708.51837	1002.73456	-64.45198	697.55243	958.48273	-78.96576	754.69385	1015.03906	-48.35584	-12.40376	1431.09460	-200.33887	-28.30946	1428.77600	-129.46356	-63.59392	1466.64221	-111.47854	-158.61122	1422.54004	-70.86734	-197.34637	1282.10791	-147.27995	-257.47263	1200.32983	-95.83220	-299.50177	1275.82971	-101.04020	-385.56970	1156.76672	-137.92203	-531.39935	1083.68567	-174.27396	-558.69214	1126.50842	-157.54745	-591.15045	1067.72961	-185.84137	-637.77002	1073.72241	-169.51030	-584.21594	1021.98291	-138.41667	77.04871	1728.82178	-251.54433	76.64996	1714.59351	-54.74716	88.27878	1648.62036	-57.74590	71.26668	1025.77954	-272.26938	152.96884	1011.54529	-279.21066	3.04176	1020.22308	-163.59575	229.23508	1054.40417	-181.77980	-73.93546	1059.18726	-125.01426	241.42822	927.25110	-259.38641	221.57599	751.09937	-123.13028	141.55585	484.27481	-128.79680	263.36450	518.93353	-175.05661	214.62343	408.26004	-119.04684	280.32166	388.41400	-112.40105	169.50040	96.29765	-76.30463	252.12582	91.63293	-26.77833	190.97562	60.71810	-252.17465	249.29086	56.46162	-231.55035	302.71951	49.11736	-133.41739	-90.29267	936.83240	-127.18679	-123.70159	760.88391	-123.45520	2.93726	499.99350	-126.76225	-120.57178	521.71277	-180.99316	-90.05870	419.29266	-89.12488	-137.47186	349.27563	-135.88718	-44.54625	100.09319	-85.37348	-123.02033	86.87190	-45.86005	-53.52032	67.10675	-272.07718	-110.41397	52.26167	-240.60187	-177.57190	57.96266	-594.28564	266.34735	25.38968	-929.88293	-121.75831	33.64227	-519.44012	71.87989	45.07010	-1120.10547	77.49466	55.69786	-68.69083	164.08665	1149.12732	-44.55524	-13.73961	1263.19653	-11.55138	650.24347	18.88408	-4.20994	-539.63605	34.45448	-296.13263	80.93768	1046.24280	
128	0.508	-97.08852	88.74841	1480.42419	-48.95322	73.17815	1255.77112	-90.48643	73.27335	1128.39880	-241.05746	84.84195	1401.00317	-288.18097	80.82317	1252.09143	-49.10662	173.25650	1436.73059	-198.19174	202.78876	1419.94385	-116.97500	225.15279	1457.11755	-93.53841	311.01584	1404.34265	-52.57750	370.13531	1275.97949	-104.23599	391.57016	1153.27734	-56.59192	443.35364	1228.24207	-47.43163	557.69598	1138.48816	-49.19095	656.05853	1026.03284	-87.89538	676.24213	1066.98193	-57.22996	708.51837	1002.73456	-64.35399	697.57166	958.36401	-78.69527	754.26715	1014.87109	-48.28701	-12.47391	1431.21399	-200.46251	-28.11675	1428.76526	-129.46356	-63.59392	1466.64221	-111.20108	-158.72603	1422.73071	-70.14949	-197.36548	1282.71167	-147.27995	-257.47263	1200.32983	-95.83220	-299.50177	1275.82971	-101.04020	-385.56970	1156.76672	-138.07478	-531.48792	1083.58911	-174.40346	-558.68365	1126.48792	-157.61371	-591.04858	1067.90100	-186.11876	-637.68219	1073.88879	-169.93326	-584.23718	1021.86780	-138.46365	77.13850	1728.89319	-251.54433	76.64996	1714.59351	-54.91279	88.25990	1648.59985	-57.69751	71.35159	1025.55420	-271.69754	153.10318	1011.44269	-279.21066	3.04176	1020.22308	-163.59575	229.23508	1054.40417	-181.77980	-73.93546	1059.18726	-124.87334	241.25623	927.11139	-259.38641	221.57599	751.09937	-123.13028	141.55585	484.27481	-128.70392	263.21658	518.92725	-175.05661	214.62343	408.26004	-119.04684	280.32166	388.41400	-112.40105	169.50040	96.29765	-76.58676	252.16841	91.37570	-26.77833	190.97562	60.71810	-251.96040	249.33298	56.37035	-231.55035	302.71951	49.11736	-133.10065	-90.23325	937.08862	-126.81924	-123.39737	761.18195	-123.45520	2.93726	499.99350	-126.28917	-120.81782	521.80969	-180.99316	-90.05870	419.29266	-89.12488	-137.47186	349.27563	-135.84650	-44.70031	100.14284	-85.37348	-123.02033	86.87190	-45.86005	-53.52032	67.10675	-272.07718	-110.41397	52.26167	-240.59772	-177.55638	57.76682	-594.30823	266.49527	25.54544	-929.95142	-121.84692	33.68814	-519.42169	71.80249	45.10469	-1120.00806	77.46059	55.58118	-68.66548	164.34576	1149.19836	-44.52684	-13.78154	1263.05847	-11.54067	650.23035	18.91148	-4.26367	-539.61664	34.37408	-296.13263	80.93768	1046.24280	
129	0.512	-97.35303	88.42947	1480.07556	-48.81541	73.14771	1255.67761	-89.80422	74.00742	1128.99976	-241.05746	84.84195	1401.00317	-287.94281	80.56172	1251.74548	-49.07641	173.15150	1436.70605	-198.19174	202.78876	1419.94385	-116.97500	225.15279	1457.11755	-93.40825	311.14481	1404.48523	-52.50884	370.03909	1276.10498	-103.89788	391.75192	1153.03064	-56.17300	443.17166	1228.32935	-47.51460	557.79785	1138.62036	-49.02037	656.33484	1026.03516	-87.80264	676.10413	1066.80908	-57.22996	708.51837	1002.73456	-64.27979	697.69043	958.23834	-78.69527	754.26715	1014.87109	-48.28701	-12.47391	1431.21399	-200.21985	-28.37280	1428.92639	-129.40718	-63.52151	1466.55859	-111.24140	-158.65215	1422.77563	-70.64191	-197.71248	1282.66687	-147.27995	-257.47263	1200.32983	-96.05700	-299.42102	1276.06604	-101.04020	-385.56970	1156.76672	-138.07478	-531.48792	1083.58911	-174.31897	-558.70288	1126.49976	-157.55940	-591.08411	1067.81531	-186.04051	-637.87604	1073.87769	-169.51030	-584.21594	1021.98291	-138.31053	77.07610	1728.78406	-251.45654	76.64239	1714.65552	-54.74716	88.27878	1648.62036	-57.45206	71.16093	1025.80676	-271.69754	153.10318	1011.44269	-278.96854	3.34628	1020.09155	-163.59575	229.23508	1054.40417	-181.56192	-73.91672	1059.38135	-124.87334	241.25623	927.11139	-259.13812	221.41560	751.09735	-123.13028	141.55585	484.27481	-128.70392	263.21658	518.92725	-175.05661	214.62343	408.26004	-119.04684	280.32166	388.41400	-112.46635	169.42499	96.71895	-76.62202	252.04912	91.30975	-26.77833	190.97562	60.71810	-252.04260	249.33578	56.49454	-231.55035	302.71951	49.11736	-133.04773	-90.36504	937.07251	-126.68336	-123.69096	761.11371	-123.45520	2.93726	499.99350	-126.28917	-120.81782	521.80969	-180.99316	-90.05870	419.29266	-88.97624	-137.39938	349.49307	-135.80315	-44.37186	100.17168	-85.43784	-122.96212	86.97099	-45.86005	-53.52032	67.10675	-272.11533	-110.34892	52.34762	-240.65366	-177.34956	57.51381	-594.44928	266.37042	25.53506	-929.95142	-121.84692	33.68814	-519.44012	71.87989	45.07010	-1120.10547	77.49466	55.69786	-68.43542	164.27719	1149.26111	-44.35715	-13.63095	1263.00037	-11.55138	650.24347	18.88408	-4.33983	-539.75519	34.45941	-296.13263	80.93768	1046.24280	
130	0.516	-96.67844	89.15482	1480.60291	-48.62686	72.88113	1255.71436	-90.48643	73.27335	1128.39880	-241.05746	84.84195	1401.00317	-287.75314	80.34612	1252.03125	-49.27459	173.18076	1436.48926	-198.19174	202.78876	1419.94385	-116.87401	225.10478	1457.04480	-93.40825	311.14481	1404.48523	-52.20469	369.73840	1276.19885	-103.89788	391.75192	1153.03064	-56.29069	443.10287	1228.25513	-47.31608	557.67932	1138.57520	-48.89413	656.34015	1026.06677	-87.35103	676.16412	1066.74475	-56.88970	708.48590	1002.84271	-64.04404	697.78113	958.15179	-78.67818	754.45703	1014.85974	-48.28701	-12.47391	1431.21399	-200.21985	-28.37280	1428.92639	-129.23953	-63.50579	1466.59204	-111.26250	-158.49529	1422.87964	-70.71635	-197.43694	1282.61255	-147.15132	-257.48431	1200.51331	-95.96989	-299.48154	1275.97034	-101.04020	-385.56970	1156.76672	-138.03735	-531.30310	1083.71570	-174.45906	-558.48505	1126.75024	-157.53133	-590.94763	1067.91309	-186.11876	-637.68219	1073.88879	-169.51030	-584.21594	1021.98291	-138.28474	77.36523	1729.00964	-251.60211	76.68739	1714.76636	-54.73043	88.52169	1648.77673	-57.21676	71.22266	1025.74146	-271.48401	152.93391	1011.42566	-278.90524	3.14441	1020.44135	-163.41170	229.38074	1054.46301	-181.57066	-74.15133	1059.44067	-124.87334	241.25623	927.11139	-259.24533	221.62274	751.18945	-123.13028	141.55585	484.27481	-128.77112	263.34860	519.03992	-175.05661	214.62343	408.26004	-119.04684	280.32166	388.41400	-112.24758	169.58101	96.08466	-76.49510	252.33441	91.11894	-26.77833	190.97562	60.71810	-252.09244	249.28806	56.33743	-231.65475	302.74658	49.26521	-132.95691	-90.37650	936.92810	-126.71626	-123.69451	761.34540	-123.45520	2.93726	499.99350	-126.28917	-120.81782	521.80969	-180.99316	-90.05870	419.29266	-88.97624	-137.39938	349.49307	-135.84650	-44.70031	100.14284	-85.43784	-122.96212	86.97099	-45.96003	-53.53111	66.97087	-272.11533	-110.34892	52.34762	-240.53430	-177.34970	57.59903	-594.43848	266.32593	25.33329	-929.95142	-121.84692	33.68814	-519.41260	71.81577	44.95951	-1119.97424	77.35743	55.55585	-68.18899	164.23911	1149.28162	-44.27265	-13.42168	1263.22791	-11.59513	650.26331	18.96683	-4.26367	-539.61664	34.37408	-296.17267	81.26543	1046.35669	
